# xmcd
#
# Track frame offsets: 
#        150
#        23195
#        44420
#        62709
#        85241
#        108334
#        127367
#        145359
#        171674
#        198668
#        214951
#
# Disc length: 3105 seconds
#
# Revision: 0
# Processed by: cddbd v1.5.1PL0 Copyright (c) Steve Scherf et al.
# Submitted via: ExactAudioCopy v0.95a5
#
DISCID=b20c1f0b
DTITLE=Randy McDonald - On The Wild Side
DYEAR=2003
DGENRE=Blues
TTITLE0=House Rent Party
TTITLE1=Everywhere I Go
TTITLE2=Crawfishin'
TTITLE3=Texas Flower
TTITLE4=Scattered, Smothered and Covered
TTITLE5=Take It Easy, Greasy
TTITLE6=Out of Work
TTITLE7=Yard Sale
TTITLE8=Can;t Judge A Book By The Cover
TTITLE9=You Eat Too Much
TTITLE10=Teenage Letter
EXTD=
EXTT0=
EXTT1=
EXTT2=
EXTT3=
EXTT4=
EXTT5=
EXTT6=
EXTT7=
EXTT8=
EXTT9=
EXTT10=
PLAYORDER=
